<svg xmlns="http://www.w3.org/2000/svg" width="512" height="512" style="" viewBox="0 0 512 512" data-svgdocument="" id="_coFzKRGqBYMIJBnZ_CCwX" class="fl-svgdocument" x="0" y="0" overflow="hidden"><defs id="_y2W6K0kFSVbPfTpNSaNNa" transform="matrix(1.1756470657170468, 0, 0, 1.1756470657170468, -23.17187824332801, 192.91590007332258)"></defs><path id="_BATRyMAZJLXPz1LAsjwes" fill="rgba(36, 70, 109, 1)" transform="matrix(0.5440689646481185, 0, 0, 0.5440689646481185, 8.749574105621804, 207.89683752528316)" data-type="circle" data-cx="88.385" data-cy="88.385" data-r="88.385" d="M88.385,88.385m-88.385,0a88.385,88.385 0 1, 0 176.77,0a88.385,88.385 0 1, 0 -176.77,0"></path><path id="_Xc3C9J8BZYW5QKfviSALD" d="M91.019 40.902c-1.945 0-3.521-1.576-3.521-3.52c0-0.555 0.14-1.073 0.369-1.54c-3.819-9.117-10.873-16.544-19.729-20.836  v11.815l-7.038 7.04l2.348 3.521h15.251v8.799h11.908c-0.072-0.502-0.117-1.011-0.2-1.509l3.456-0.645  c0.412 2.422 0.674 4.894 0.674 7.433c0 24.299-19.697 43.996-43.995 43.996c-19.457 0-35.921-12.646-41.727-30.156  c-1.325-0.504-2.271-1.777-2.271-3.279c0-1.944 1.576-3.521 3.52-3.521c1.943 0 3.52 1.576 3.52 3.521  c0 1.08-0.496 2.031-1.261 2.678c0.78 2.253 1.774 4.406 2.92 6.459l10.659-9.137v-12.32h10.56v-7.041h-7.04v-7.039H13.284  c-2.071 4.864-3.221 10.217-3.221 15.839c0 0.949 0.078 1.879 0.142 2.812l-3.487 0.649c-0.09-1.146-0.175-2.294-0.175-3.464  c0-24.298 19.698-43.997 43.998-43.997c18.04 0 33.493 10.88 40.282 26.417c0.065-0.003 0.127-0.019 0.195-0.019  c1.943 0 3.518 1.576 3.518 3.521C94.536 39.326 92.962 40.902 91.019 40.902z M75.179 40.902H64.618v10.559h10.561V40.902z   M91.019 51.461c0-0.594-0.058-1.173-0.085-1.759H78.698v5.279h-7.041l-0.018 9.419l-2.995 3.325L80.72 78.37  C87.105 71.215 91.019 61.807 91.019 51.461z M17.288 74.433c7.295 10.562 19.443 17.507 33.253 17.507  c10.711 0 20.424-4.19 27.663-10.984L66.394 70.397L62.86 74.34h-8.799v3.521H36.462v-5.28l-7.92-7.92l-0.88 0.881L17.288 74.433z   M50.541 74.34V63.781h-10.56V74.34H50.541z M29.422 53.22v6.802l7.04 7.039v-6.8h17.599v10.56H61.1l7.038-7.039V54.98H61.1V40.902  l-3.519-5.279H47.021v7.039h-7.04V53.22H29.422z M32.941 35.623v3.519h10.56v-10.56H39.98h-7.04L32.941 35.623L32.941 35.623z   M36.462 13.551c-9.193 3.417-16.828 10.037-21.474 18.552h14.434v-7.041l0 0h7.04V13.551z M64.618 13.529  c-4.384-1.633-9.12-2.544-14.077-2.544c-3.661 0-7.189 0.53-10.561 1.438v12.639h7.04v7.041h10.561l7.037-7.041V13.529z" fill="#ffffff" transform="matrix(0.9010797196114126, 0, 0, 0.9010797196114126, 11.737603662840627, 209.85828773622276)"></path><path text="Relipa Portal" text-anchor="start" font-size="100" letter-spacing="0" side="left" offset="0" dx="0" dy="0" space="preserve" href="" font-family="Montserrat" font-scale="contain" transform="matrix(0.548235388874079, 0, 0, 0.548235388874079, 116.19732301268692, 272.239552153269)" x="0" y="0" fill="rgba(36, 70, 109, 1)" font-weight="700" data-fl-textpath="" id="_8aQbwXwIqHgRNT3mfYdpv" d="M 70.3 0L 52.9 0L 39.4-19.5L 38.6-19.5L 24.5-19.5L 24.5 0L 8.3 0L 8.3-70L 38.6-70Q 47.9-70  54.75-66.9Q 61.6-63.8  65.3-58.1Q 69-52.4  69-44.6L 69-44.6Q 69-36.8  65.25-31.15Q 61.5-25.5  54.6-22.5L 54.6-22.5L 70.3 0ZM 52.6-44.6Q 52.6-50.5  48.8-53.65Q 45-56.8  37.7-56.8L 37.7-56.8L 24.5-56.8L 24.5-32.4L 37.7-32.4Q 45-32.4  48.8-35.6Q 52.6-38.8  52.6-44.6L 52.6-44.6ZM 133.4-26.7Q 133.4-26.4  133.1-22.5L 133.1-22.5L 92.4-22.5Q 93.5-17.5  97.6-14.6Q 101.7-11.7  107.8-11.7L 107.8-11.7Q 112-11.7  115.25-12.95Q 118.5-14.2  121.3-16.9L 121.3-16.9L 129.6-7.9Q 122 0.8  107.4 0.8L 107.4 0.8Q 98.3 0.8  91.3-2.75Q 84.3-6.3  80.5-12.6Q 76.7-18.9  76.7-26.9L 76.7-26.9Q 76.7-34.8  80.45-41.15Q 84.2-47.5  90.75-51.05Q 97.3-54.6  105.4-54.6L 105.4-54.6Q 113.3-54.6  119.7-51.2Q 126.1-47.8  129.75-41.45Q 133.4-35.1  133.4-26.7L 133.4-26.7ZM 105.5-42.8Q 100.2-42.8  96.6-39.8Q 93-36.8  92.2-31.6L 92.2-31.6L 118.7-31.6Q 117.9-36.7  114.3-39.75Q 110.7-42.8  105.5-42.8L 105.5-42.8ZM 143.79999999999998 0L 143.79999999999998-74.2L 159.4-74.2L 159.4 0L 143.79999999999998 0ZM 173.89999999999998 0L 173.89999999999998-53.8L 189.5-53.8L 189.5 0L 173.89999999999998 0ZM 181.7-61.3Q 177.39999999999998-61.3  174.7-63.8Q 172-66.3  172-70L 172-70Q 172-73.7  174.7-76.2Q 177.39999999999998-78.7  181.7-78.7L 181.7-78.7Q 186-78.7  188.7-76.3Q 191.39999999999998-73.9  191.39999999999998-70.3L 191.39999999999998-70.3Q 191.39999999999998-66.4  188.7-63.85Q 186-61.3  181.7-61.3L 181.7-61.3ZM 235.79999999999995-54.6Q 243.29999999999995-54.6  249.44999999999996-51.15Q 255.59999999999997-47.7  259.09999999999997-41.45Q 262.59999999999997-35.2  262.59999999999997-26.9L 262.59999999999997-26.9Q 262.59999999999997-18.6  259.09999999999997-12.35Q 255.59999999999997-6.1  249.44999999999996-2.65Q 243.29999999999995 0.8  235.79999999999995 0.8L 235.79999999999995 0.8Q 225.49999999999994 0.8  219.59999999999997-5.7L 219.59999999999997-5.7L 219.59999999999997 19.4L 203.99999999999994 19.4L 203.99999999999994-53.8L 218.89999999999995-53.8L 218.89999999999995-47.6Q 224.69999999999996-54.6  235.79999999999995-54.6L 235.79999999999995-54.6ZM 233.09999999999997-12Q 239.09999999999997-12  242.94999999999996-16.05Q 246.79999999999995-20.1  246.79999999999995-26.9L 246.79999999999995-26.9Q 246.79999999999995-33.7  242.94999999999996-37.75Q 239.09999999999997-41.8  233.09999999999997-41.8L 233.09999999999997-41.8Q 227.09999999999997-41.8  223.24999999999994-37.75Q 219.39999999999995-33.7  219.39999999999995-26.9L 219.39999999999995-26.9Q 219.39999999999995-20.1  223.24999999999994-16.05Q 227.09999999999997-12  233.09999999999997-12L 233.09999999999997-12ZM 293.79999999999995-54.6Q 306.29999999999995-54.6  313-48.65Q 319.7-42.7  319.7-30.7L 319.7-30.7L 319.7 0L 305.09999999999997 0L 305.09999999999997-6.7Q 300.7 0.8  288.7 0.8L 288.7 0.8Q 282.5 0.8  277.95-1.3Q 273.4-3.4  271-7.1Q 268.59999999999997-10.8  268.59999999999997-15.5L 268.59999999999997-15.5Q 268.59999999999997-23  274.25-27.3Q 279.9-31.6  291.7-31.6L 291.7-31.6L 304.09999999999997-31.6Q 304.09999999999997-36.7  301-39.45Q 297.9-42.2  291.7-42.2L 291.7-42.2Q 287.4-42.2  283.25-40.85Q 279.09999999999997-39.5  276.2-37.2L 276.2-37.2L 270.59999999999997-48.1Q 275-51.2  281.15-52.9Q 287.29999999999995-54.6  293.79999999999995-54.6L 293.79999999999995-54.6ZM 292.59999999999997-9.7Q 296.59999999999997-9.7  299.7-11.55Q 302.79999999999995-13.4  304.09999999999997-17L 304.09999999999997-17L 304.09999999999997-22.5L 293.4-22.5Q 283.79999999999995-22.5  283.79999999999995-16.2L 283.79999999999995-16.2Q 283.79999999999995-13.2  286.15-11.45Q 288.5-9.7  292.59999999999997-9.7L 292.59999999999997-9.7ZM 393.5-70Q 402.79999999999995-70  409.65-66.9Q 416.5-63.8  420.2-58.1Q 423.9-52.4  423.9-44.6L 423.9-44.6Q 423.9-36.9  420.2-31.15Q 416.5-25.4  409.65-22.35Q 402.79999999999995-19.3  393.5-19.3L 393.5-19.3L 379.4-19.3L 379.4 0L 363.2 0L 363.2-70L 393.5-70ZM 392.59999999999997-32.5Q 399.9-32.5  403.7-35.65Q 407.5-38.8  407.5-44.6L 407.5-44.6Q 407.5-50.5  403.7-53.65Q 399.9-56.8  392.59999999999997-56.8L 392.59999999999997-56.8L 379.4-56.8L 379.4-32.5L 392.59999999999997-32.5ZM 459.8 0.8Q 451.3 0.8  444.55-2.75Q 437.8-6.3  434-12.6Q 430.2-18.9  430.2-26.9L 430.2-26.9Q 430.2-34.9  434-41.2Q 437.8-47.5  444.55-51.05Q 451.3-54.6  459.8-54.6L 459.8-54.6Q 468.3-54.6  475-51.05Q 481.7-47.5  485.5-41.2Q 489.3-34.9  489.3-26.9L 489.3-26.9Q 489.3-18.9  485.5-12.6Q 481.7-6.3  475-2.75Q 468.3 0.8  459.8 0.8L 459.8 0.8ZM 459.8-12Q 465.8-12  469.65-16.05Q 473.5-20.1  473.5-26.9L 473.5-26.9Q 473.5-33.7  469.65-37.75Q 465.8-41.8  459.8-41.8L 459.8-41.8Q 453.8-41.8  449.9-37.75Q 446-33.7  446-26.9L 446-26.9Q 446-20.1  449.9-16.05Q 453.8-12  459.8-12L 459.8-12ZM 514.5999999999999-46.7Q 517.4-50.6  522.15-52.6Q 526.9-54.6  533.0999999999999-54.6L 533.0999999999999-54.6L 533.0999999999999-40.2Q 530.5-40.4  529.5999999999999-40.4L 529.5999999999999-40.4Q 522.9-40.4  519.0999999999999-36.65Q 515.3-32.9  515.3-25.4L 515.3-25.4L 515.3 0L 499.69999999999993 0L 499.69999999999993-53.8L 514.5999999999999-53.8L 514.5999999999999-46.7ZM 574.8000000000001-13.6L 579-2.6Q 576.7-0.9  573.35-0.05Q 570 0.8  566.3000000000001 0.8L 566.3000000000001 0.8Q 556.7 0.8  551.45-4.1Q 546.2-9  546.2-18.5L 546.2-18.5L 546.2-40.6L 537.9-40.6L 537.9-52.6L 546.2-52.6L 546.2-65.7L 561.8000000000001-65.7L 561.8000000000001-52.6L 575.2-52.6L 575.2-40.6L 561.8000000000001-40.6L 561.8000000000001-18.7Q 561.8000000000001-15.3  563.5500000000001-13.45Q 565.3000000000001-11.6  568.5-11.6L 568.5-11.6Q 572.2-11.6  574.8000000000001-13.6L 574.8000000000001-13.6ZM 609.5-54.6Q 622-54.6  628.7-48.65Q 635.4-42.7  635.4-30.7L 635.4-30.7L 635.4 0L 620.8000000000001 0L 620.8000000000001-6.7Q 616.4 0.8  604.4 0.8L 604.4 0.8Q 598.2 0.8  593.65-1.3Q 589.1-3.4  586.7-7.1Q 584.3000000000001-10.8  584.3000000000001-15.5L 584.3000000000001-15.5Q 584.3000000000001-23  589.95-27.3Q 595.6-31.6  607.4-31.6L 607.4-31.6L 619.8000000000001-31.6Q 619.8000000000001-36.7  616.7-39.45Q 613.6-42.2  607.4-42.2L 607.4-42.2Q 603.1-42.2  598.95-40.85Q 594.8000000000001-39.5  591.9-37.2L 591.9-37.2L 586.3000000000001-48.1Q 590.7-51.2  596.85-52.9Q 603-54.6  609.5-54.6L 609.5-54.6ZM 608.3000000000001-9.7Q 612.3000000000001-9.7  615.4-11.55Q 618.5-13.4  619.8000000000001-17L 619.8000000000001-17L 619.8000000000001-22.5L 609.1-22.5Q 599.5-22.5  599.5-16.2L 599.5-16.2Q 599.5-13.2  601.85-11.45Q 604.2-9.7  608.3000000000001-9.7L 608.3000000000001-9.7ZM 649.5000000000001 0L 649.5000000000001-74.2L 665.1-74.2L 665.1 0L 649.5000000000001 0Z"></path></svg>
