<svg width="215" height="463" xmlns="http://www.w3.org/2000/svg">

 <g>
  <title>Layer 1</title>
  <g id="freepik--Sign--inject-2">
   <rect id="svg_1" fill="#263238" height="233.26" width="12.88" y="229.31" x="103.83"/>
   <rect id="svg_2" fill="#455a64" height="233.26" width="12.88" y="229.31" x="100.25"/>
   <path id="svg_3" fill="#D94214" d="m173.77,206.92c0,-8.77 0,-17.54 0,-26.3a3.4,3.4 0 0 0 -0.78,-2.18q-18.69,-18.75 -37.46,-37.44a4.19,4.19 0 0 0 -2.7,-1.08c-17.32,-0.06 -34.63,0 -51.94,-0.08a4.2,4.2 0 0 0 -3.27,1.42q-18.37,18.45 -36.79,36.87a4,4 0 0 0 -1,2.55q-0.09,26.22 0,52.44a4,4 0 0 0 1.07,2.53q18.36,18.48 36.79,36.89a4.15,4.15 0 0 0 3.23,1.46q25.8,-0.06 51.61,0a4.25,4.25 0 0 0 3.3,-1.35c12.24,-12.31 24.55,-24.56 36.78,-36.88a4.25,4.25 0 0 0 1.11,-2.69c0.08,-8.74 0.05,-17.45 0.05,-26.16z"/>
   <g id="freepik--4mamg4tif--inject-2">
    <path id="svg_4" fill="#D94214" d="m30.14,206.76c0,-10 0,-20.06 0,-30.08a3.82,3.82 0 0 1 1,-2.42q16.72,-16.83 33.55,-33.59c3.06,-3.06 6.07,-6.16 9.19,-9.15a4.07,4.07 0 0 1 2.52,-1.1c20.06,-0.06 40.11,0 60.17,-0.07a4.05,4.05 0 0 1 3.15,1.32q21.21,21.3 42.49,42.55a3.72,3.72 0 0 1 1,2.39c0.05,20.17 0,40.33 0.05,60.5a3.47,3.47 0 0 1 -1.13,2.72q-16.66,16.57 -33.24,33.17c-3.17,3.17 -6.35,6.34 -9.6,9.44a3.62,3.62 0 0 1 -2.24,0.95q-30.42,0.07 -60.83,0a3.29,3.29 0 0 1 -2.11,-0.86q-17.78,-17.65 -35.47,-35.39c-2.48,-2.47 -5,-4.91 -7.39,-7.47a4.13,4.13 0 0 1 -1.06,-2.54c-0.07,-10.13 -0.05,-20.23 -0.05,-30.37zm76.64,-71.91c-9.53,0 -19.07,0 -28.6,0a3.12,3.12 0 0 0 -2,0.72q-20.32,20.21 -40.53,40.53a3.8,3.8 0 0 0 -1,2.42q-0.08,28.35 0,56.71a3.94,3.94 0 0 0 1,2.54q20,20.14 40.2,40.17a3.77,3.77 0 0 0 2.41,1c18.84,0.05 37.69,0 56.54,0.07a3.68,3.68 0 0 0 2.87,-1.19q19.89,-19.95 39.85,-39.85a3.86,3.86 0 0 0 1.2,-3c0,-18.85 0,-37.7 -0.06,-56.55a3.67,3.67 0 0 0 -0.94,-2.26c-3.5,-3.62 -7.09,-7.15 -10.65,-10.72q-14.52,-14.53 -29,-29.09a4.77,4.77 0 0 0 -3.73,-1.53c-9.15,0.07 -18.34,0.03 -27.56,0.03z"/>
    <path id="svg_5" fill="#fff" d="m106.78,134.85c9.21,0 18.41,0 27.62,0a4.77,4.77 0 0 1 3.73,1.53q14.48,14.58 29,29.09c3.56,3.57 7.15,7.1 10.65,10.72a3.67,3.67 0 0 1 0.94,2.26c0.05,18.85 0,37.7 0.06,56.55a3.86,3.86 0 0 1 -1.2,3q-20,19.89 -39.85,39.85a3.68,3.68 0 0 1 -2.87,1.19c-18.85,0 -37.7,0 -56.54,-0.07a3.77,3.77 0 0 1 -2.41,-1q-20.16,-20 -40.2,-40.17a3.94,3.94 0 0 1 -1,-2.54q-0.09,-28.37 0,-56.71a3.8,3.8 0 0 1 1,-2.42q20.2,-20.32 40.53,-40.53a3.12,3.12 0 0 1 2,-0.72c9.47,-0.05 19.01,-0.03 28.54,-0.03zm66.93,72.07c0,-8.77 0,-17.54 0,-26.3a3.4,3.4 0 0 0 -0.78,-2.18q-18.65,-18.75 -37.43,-37.4a4.19,4.19 0 0 0 -2.7,-1.08c-17.31,-0.06 -34.63,0 -51.94,-0.08a4.19,4.19 0 0 0 -3.26,1.42q-18.39,18.45 -36.8,36.87a4,4 0 0 0 -1,2.55q-0.09,26.22 0,52.44a4,4 0 0 0 1.07,2.53q18.36,18.48 36.79,36.89a4.16,4.16 0 0 0 3.2,1.42q25.81,-0.06 51.61,0a4.24,4.24 0 0 0 3.3,-1.35c12.25,-12.31 24.55,-24.56 36.79,-36.88a4.24,4.24 0 0 0 1.1,-2.69c0.08,-8.74 0.05,-17.45 0.05,-26.16z"/>
   </g>
   <path id="svg_6" fill="#fff" d="m95.21,214.16l-5.66,0l0,7.3l-7.84,0l0,-7.3l-18.71,0l0,-5.41l16.38,-22l8.43,0l-15.18,20.9l9.37,0l0,-6.5l7.59,0l0,6.5l5.66,0l-0.04,6.51z"/>
   <path id="svg_7" fill="#fff" d="m97.59,204.09c0,-11.47 6.35,-18 14.89,-18s14.89,6.5 14.89,18s-6.3,18 -14.89,18s-14.89,-6.54 -14.89,-18zm21.69,0c0,-7.89 -2.78,-11.17 -6.8,-11.17s-6.75,3.28 -6.75,11.17s2.78,11.17 6.75,11.17s6.8,-3.26 6.8,-11.17z"/>
   <path id="svg_8" fill="#fff" d="m144.39,186.71l0,34.75l-8,0l0,-28.29l-6.99,0l0,-6.46l14.99,0z"/>
   <path id="svg_9" fill="#fff" d="m98,176l0,1.5l-8.72,0l0,-12l8.48,0l0,1.49l-6.76,0l0,3.69l6,0l0,1.46l-6,0l0,3.86l7,0z"/>
   <path id="svg_10" fill="#fff" d="m105.44,168.27l0,1.6a2.55,2.55 0 0 0 -0.38,0c-1.76,0 -2.86,1.08 -2.86,3.07l0,4.54l-1.65,0l0,-9.1l1.58,0l0,1.52a3.47,3.47 0 0 1 3.31,-1.63z"/>
   <path id="svg_11" fill="#fff" d="m112.37,168.27l0,1.6a2.55,2.55 0 0 0 -0.38,0c-1.77,0 -2.87,1.08 -2.87,3.07l0,4.54l-1.65,0l0,-9.1l1.58,0l0,1.52a3.48,3.48 0 0 1 3.32,-1.63z"/>
   <path id="svg_12" fill="#fff" d="m113.47,172.91a4.73,4.73 0 1 1 4.74,4.65a4.53,4.53 0 0 1 -4.74,-4.65zm7.79,0a3.07,3.07 0 1 0 -6.13,0a3.07,3.07 0 1 0 6.13,0z"/>
   <path id="svg_13" fill="#fff" d="m130.11,168.27l0,1.6a2.42,2.42 0 0 0 -0.37,0c-1.77,0 -2.87,1.08 -2.87,3.07l0,4.54l-1.65,0l0,-9.1l1.58,0l0,1.52a3.48,3.48 0 0 1 3.31,-1.63z"/>
   <path id="svg_14" fill="#fff" d="m62.24,235.59l0,-5.34l1.34,0l0,5.28c0,2.08 1,3 2.64,3s2.66,-0.94 2.66,-3l0,-5.28l1.3,0l0,5.34c0,2.72 -1.49,4.16 -4,4.16s-3.94,-1.44 -3.94,-4.16z"/>
   <path id="svg_15" fill="#fff" d="m79.49,235.55l0,4.09l-1.29,0l0,-3.95c0,-1.39 -0.7,-2.07 -1.92,-2.07a2.1,2.1 0 0 0 -2.28,2.38l0,3.66l-1.26,0l0,-7.11l1.26,0l0,1.07a3.08,3.08 0 0 1 2.57,-1.14a2.75,2.75 0 0 1 2.92,3.07z"/>
   <path id="svg_16" fill="#fff" d="m87.51,235.35l0,4.29l-1.22,0l0,-0.94a2.65,2.65 0 0 1 -2.34,1c-1.61,0 -2.63,-0.86 -2.63,-2.09s0.74,-2.08 2.86,-2.08l2,0l0,-0.26c0,-1.08 -0.63,-1.72 -1.91,-1.72a3.6,3.6 0 0 0 -2.25,0.77l-0.54,-1a4.75,4.75 0 0 1 2.94,-0.91c1.99,0.05 3.09,0.99 3.09,2.94zm-1.29,2.12l0,-1l-2,0c-1.27,0 -1.63,0.5 -1.63,1.1s0.59,1.16 1.57,1.16a2.07,2.07 0 0 0 2.06,-1.26z"/>
   <path id="svg_17" fill="#fff" d="m96.52,232.53l0,7.11l-1.22,0l0,-1.07a2.92,2.92 0 0 1 -2.42,1.15a2.8,2.8 0 0 1 -3.06,-3.1l0,-4.09l1.29,0l0,3.94c0,1.4 0.7,2.1 1.92,2.1a2.1,2.1 0 0 0 2.2,-2.37l0,-3.67l1.29,0z"/>
   <path id="svg_18" fill="#fff" d="m103,239.22a2.41,2.41 0 0 1 -1.56,0.5a2,2 0 0 1 -2.25,-2.23l0,-3.9l-1.19,0l0,-1.06l1.21,0l0,-1.53l1.29,0l0,1.56l2,0l0,1.06l-2,0l0,3.85a1,1 0 0 0 1.11,1.19a1.62,1.62 0 0 0 1,-0.33l0.39,0.89z"/>
   <path id="svg_19" fill="#fff" d="m111.27,235.55l0,4.09l-1.27,0l0,-3.95c0,-1.39 -0.7,-2.07 -1.92,-2.07a2.1,2.1 0 0 0 -2.25,2.36l0,3.66l-1.29,0l0,-10l1.29,0l0,3.85a3.1,3.1 0 0 1 2.51,-1.07a2.75,2.75 0 0 1 2.93,3.13z"/>
   <path id="svg_20" fill="#fff" d="m113,236.08a3.7,3.7 0 1 1 3.7,3.64a3.54,3.54 0 0 1 -3.7,-3.64zm6.09,0a2.4,2.4 0 1 0 -2.39,2.51a2.33,2.33 0 0 0 2.43,-2.51l-0.04,0z"/>
   <path id="svg_21" fill="#fff" d="m126,232.46l0,1.25l-0.29,0a2.12,2.12 0 0 0 -2.24,2.4l0,3.54l-1.29,0l0,-7.11l1.23,0l0,1.19a2.72,2.72 0 0 1 2.59,-1.27z"/>
   <path id="svg_22" fill="#fff" d="m127.39,230.33a0.87,0.87 0 1 1 0.87,0.83a0.83,0.83 0 0 1 -0.87,-0.83zm0.22,2.2l1.29,0l0,7.11l-1.29,0l0,-7.11z"/>
   <path id="svg_23" fill="#fff" d="m136.63,238.58l0,1.06l-6,0l0,-0.83l4.2,-5.22l-4.12,0l0,-1.06l5.77,0l0,0.84l-4.2,5.21l4.35,0z"/>
   <path id="svg_24" fill="#fff" d="m144.63,236.51l-5.77,0a2.42,2.42 0 0 0 2.58,2.08a2.64,2.64 0 0 0 2.05,-0.86l0.71,0.84a3.87,3.87 0 0 1 -6.62,-2.49a3.48,3.48 0 0 1 3.57,-3.62a3.43,3.43 0 0 1 3.51,3.66a2.66,2.66 0 0 1 -0.03,0.39zm-5.77,-0.92l4.57,0a2.3,2.3 0 0 0 -4.57,0z"/>
   <path id="svg_25" fill="#fff" d="m153.15,229.68l0,10l-1.23,0l0,-1.13a3,3 0 0 1 -2.54,1.21a3.63,3.63 0 0 1 0,-7.26a3,3 0 0 1 2.48,1.14l0,-3.92l1.29,-0.04zm-1.28,6.4a2.39,2.39 0 1 0 -2.38,2.51a2.34,2.34 0 0 0 2.38,-2.51z"/>
  </g>
 </g>
</svg>